Patient4_TMGait_0pt8_01_left_35_EMG.mot
version=1
nRows=16
nColumns=33
inDegrees=no
endheader
time	1LAddLong	2LGlutMax	3LGlutMed	4LIliopsoas	5LSemiMemb	6LBicFemLong	7LRecFem	8LVastMed	9LVastLat	10LGasMed	11LTibAnt	12lTibPost	13LPeroneusLong	14LSol	15LExtDigLong	16LFlexDigLong	17RAddLong	18RGlutMax	19RGlutMed	20RIliopsoas	21RSemiMemb	22RBicFemLong	23RRecFem	24RVastMed	25RVastLat	26RGasMed	27RTibAnt	28RTibPost	29RPeroneusLong	30RSol	31RExtDigLong	32RFlexDigLong
39.795	0.036469	0.47501	-0.035248	0.010071	0.067596	-0.01358	-0.019684	0.001526	0.15732	-0.035553	0.040283	-0.001068	0.043488	-0.027008	-0.001068	0.018158	0.007629	-0.48477	0.58105	0.002747	-0.090179	-0.038452	-0.039673	0.04837	0.51178	-0.00946	0.35507	-0.013123	0.10864	0.093231	-0.022583	-0.013885
39.796	0.016785	0.44876	-0.051117	0.013123	0.068817	-0.008698	-0.001984	0.009613	0.14465	-0.029449	0.025177	-0.005341	0.046692	-0.032654	0.008698	0.010223	-0.001678	-0.54932	0.30212	0.034637	0.040283	-0.019073	-0.052948	0.013123	0.35202	0.012054	-0.34729	-0.012817	0.27817	-0.12146	-0.017242	-0.007629
39.797	0.025177	0.49683	-0.095215	0.008698	0.030823	0.034332	0.019836	0.040741	0.14725	-0.018005	0.010529	-0.016479	0.040894	-0.030365	0.008698	0.006561	0.00473	-0.52383	0.15228	0.043945	0.01709	-0.030823	-0.053101	-0.002441	0.22018	0.001373	-1.1507	-0.01236	0.12222	-0.10895	-0.018463	-0.012817
39.798	0.031128	0.53558	-0.12772	0.019226	0.00885	0.033264	0.009308	-0.004272	0.13565	-0.035248	0.021515	-0.005035	0.0383	-0.047302	0.023193	0.002441	0.016327	-0.55557	0.016632	0.032349	0.019836	-0.027771	-0.25024	-0.05249	0.055237	-0.007477	-0.54535	-0.01297	-0.15289	0.024872	-0.013885	-0.018616
39.799	0.013123	0.52094	-0.1712	0.008392	-0.001373	0.01236	0.028687	0.006866	0.13916	-0.027008	0.013275	-0.002441	0.025635	-0.026855	0.019379	0.014496	0.014343	-0.55344	0.052338	0.02243	-0.025177	-0.044708	-0.3093	-0.012207	-0.041809	-0.007782	-0.40161	-0.010986	0.020447	0.11765	-0.0177	-0.013885
39.8	0.01358	0.50156	-0.025787	0.000458	0.019684	0.001678	0.028076	0.00473	0.13367	-0.071411	0.008545	-0.003967	0.038757	-0.037537	-0.024261	0.008087	-0.005646	-0.54581	0.053253	-0.065155	-0.030212	-0.06485	-0.13779	0.063934	-0.33478	0.005493	-0.53619	-0.010071	0.32166	0.015106	-0.017395	-0.006561
39.801	0.011749	0.46677	0.085907	0.004578	0.005798	0.003815	0.021515	-0.005646	0.13748	-0.05722	0.000916	-0.00412	0.043945	-0.097198	-0.028381	0.000153	0.026855	-0.52978	0.10544	-0.032654	-0.29999	0.002441	-0.16922	0.028229	-0.45441	0.007172	-0.67017	-0.002594	0.33905	-0.012207	-0.020142	0.001373
39.802	0.009003	0.41946	0.1445	0.003204	-0.000916	0.009766	0.011902	0.007172	0.17899	-0.017548	-0.031891	-0.00946	0.066528	-0.097046	-0.016785	0.016937	0.039063	-0.52704	0.15427	0.010681	-0.31769	0.055542	-0.27176	-0.023651	-0.37125	-0.002289	-0.44342	-0.00946	0.12375	0.016022	-0.016479	0.001678
39.803	0.010986	0.38361	0.065765	-0.001526	0.032349	0.020294	0.002899	0.00885	0.18555	-0.014496	-0.043182	-0.001221	0.030518	-0.050354	0.002594	0.003967	0.037231	-0.52765	0.57922	0.057373	-0.40344	0.072479	-0.26779	-0.062256	-0.15228	-0.00946	-0.29434	-0.004425	0.002441	0.049896	-0.015564	-0.002899
39.804	0.010834	0.3981	0.012817	0.00885	0.028992	0.036926	0.004425	0.007019	0.159	-0.017395	-0.067902	0.002899	0.01358	-0.075836	-0.007019	0.007629	0	-0.5217	0.60562	-0.066986	-0.11932	0.030518	-0.20081	0.11353	-0.03952	-0.017395	-0.18951	-0.005035	-0.014343	0.15686	-0.009766	-0.01358
39.805	0.00473	0.38193	0.00061	-0.008087	0.014801	0.052795	-0.010681	0.010071	0.11643	-0.026093	-0.061035	-0.011597	0.038605	-0.15717	-0.017242	0.000763	-0.029144	-0.59158	0.20996	-0.091553	0.45242	-0.054474	-0.21561	0.13321	-0.040741	-0.018616	-0.044403	-0.002747	0.02594	0.015717	-0.015564	-0.010681
39.806	0.012054	0.39703	0.045319	-0.000916	0.007324	0.039063	-0.001678	0.007324	0.092163	-0.058594	0.03006	-0.002747	0.041504	-0.10315	-0.000305	0.002747	0.001068	-0.56274	-0.066071	-0.003357	0.42084	-0.047302	-0.12802	0.040436	-0.06897	-0.013275	-0.017242	-0.003815	0.020905	-0.17303	-0.01709	-0.011749
39.807	0.002289	0.41138	-0.011902	0.012054	-0.020752	-0.009155	-0.029144	0.00824	0.10376	-0.043335	0.15961	-0.006104	0.023193	-0.041199	0.010986	0.018463	-0.023346	-0.45944	0.006104	0.13702	0.2153	-0.029907	-0.103	-0.037994	-0.058289	-0.018158	0.080872	-0.003204	-0.25436	0.037537	-0.018463	-0.010681
39.808	0.010986	0.39322	-0.049896	0.004883	0.006866	-0.006256	-0.042114	0.008545	0.12695	-0.027313	0.078888	-0.008087	0.024567	0.016174	0.010834	0.002441	-0.031738	-0.46036	-0.06073	0.21744	0.077667	-0.022888	-0.13886	-0.028992	0.034485	-0.022736	0.07309	-0.00885	-0.43808	0.25314	-0.016785	-0.014496
39.809	0.010223	0.35629	-0.060577	0.014496	0.003967	0.011902	-0.014648	0.007935	0.15945	-0.015259	0.035095	-0.007019	0.034027	0.009613	0.015717	0.003357	-0.014954	-0.52994	-0.26032	0.067749	0.15411	-0.089874	-0.099487	0.11169	0.036469	-0.021973	0.055542	-0.005646	-0.44083	0.1619	-0.017395	-0.018158
39.81	0.005951	0.34744	-0.030823	-0.010529	-0.001984	-0.008392	-0.026398	0	0.15869	-0.015564	-0.003967	-0.007172	0.034332	-0.081024	0.015564	0.000153	-0.016174	-0.52277	0.11993	-0.13428	0.067444	0.002594	-0.043335	0.11688	-0.027618	-0.014648	0.061188	0.007477	-0.2121	0.19562	-0.012817	-0.00946
